<svg xmlns="http://www.w3.org/2000/svg" xmlns:xlink="http://www.w3.org/1999/xlink" width="511" height="121.27" viewBox="0 0 511 121.27"><defs><linearGradient id="a" x1="-6.807" y1="3.969" x2="-6.784" y2="3.969" gradientUnits="objectBoundingBox"><stop offset="0" stop-color="#07806d"/><stop offset="1" stop-color="#035663"/></linearGradient></defs><g transform="translate(-5457 -18334.365)"><g transform="translate(5471.17 18334.84)"><path d="M138.79,64.33a29.548,29.548,0,0,1-.78,7.52,14.735,14.735,0,0,1-3.74,6.4q-4.83,4.91-12.69,4.91a21.662,21.662,0,0,1-7.07-1.11,14.486,14.486,0,0,1-6-3.74,15.316,15.316,0,0,1-3.83-6.46,20.975,20.975,0,0,1-.6-3.51c-.08-1-.12-2.37-.12-4V36.92h11.58V64.33a22.8,22.8,0,0,0,.18,3.09,9.21,9.21,0,0,0,.81,2.78,5,5,0,0,0,4.93,2.8c2.43,0,4.07-.9,4.91-2.72a9.88,9.88,0,0,0,.71-2.75q.12-1.2.12-3.18V36.92h11.59Z" fill="#42b485"/><path d="M167.76,82.29V63.71a9.9,9.9,0,0,0-1-4.94c-.82-1.4-2.27-2.1-4.37-2.1a5.469,5.469,0,0,0-4.7,2,9.131,9.131,0,0,0-1.14,5.09V82.29H146.42v-34h9.49v3.62h.15q2.921-4.79,9.24-4.79a13.049,13.049,0,0,1,8.71,3,10.164,10.164,0,0,1,3.18,5,20.894,20.894,0,0,1,.74,5.95V82.29Z" fill="#42b485"/><path d="M183.93,44.67V36.92H194.1v7.75Zm0,37.62v-34H194.1v34Z" fill="#42b485"/><path d="M236.13,69.36a18.269,18.269,0,0,1-36.03-3.969V65.2a17.52,17.52,0,0,1,5.17-12.81,17.261,17.261,0,0,1,12.78-5.3A18.282,18.282,0,0,1,229.67,51a17,17,0,0,1,6.4,10.38H225.78a7.761,7.761,0,0,0-7.61-4.79,7.112,7.112,0,0,0-5.74,2.61,9,9,0,0,0-2.1,6,8.769,8.769,0,0,0,2.19,6.11,7.582,7.582,0,0,0,5.89,2.51,7.778,7.778,0,0,0,7.37-4.52Z" fill="#42b485"/><path d="M270.86,78.19a19.151,19.151,0,0,1-26.13,0,17.331,17.331,0,0,1-5.27-12.93,17.37,17.37,0,0,1,5.27-13,19.169,19.169,0,0,1,26.13,0,17.362,17.362,0,0,1,5.26,13,17.321,17.321,0,0,1-5.26,12.93Zm-7.22-18.94a7.92,7.92,0,0,0-11.189-.511c-.178.162-.349.333-.511.511a8.49,8.49,0,0,0-2.3,6,8.583,8.583,0,0,0,2.3,6,8,8,0,0,0,11.307.393c.135-.126.267-.257.393-.393a8.587,8.587,0,0,0,2.31-6,8.5,8.5,0,0,0-2.31-6Z" fill="#42b485"/><path d="M299.39,57.33a12.089,12.089,0,0,0-5.69,1.2c-1.55,1-2.33,2.64-2.33,5.06v18.7H281.19v-34h9.55v3.62h.15q2.43-4.79,8.5-4.79Z" fill="#42b485"/><path d="M325.38,82.29V63.71a9.9,9.9,0,0,0-1-4.94c-.82-1.4-2.27-2.1-4.37-2.1a5.469,5.469,0,0,0-4.7,2,9.233,9.233,0,0,0-1.13,5.09V82.29H304v-34h9.49v3.62h.15q2.929-4.79,9.25-4.79a13.094,13.094,0,0,1,8.71,3,10.215,10.215,0,0,1,3.17,5,20.514,20.514,0,0,1,.75,5.95V82.29Z" fill="#42b485"/><path d="M395,64.33a29.547,29.547,0,0,1-.78,7.52,14.736,14.736,0,0,1-3.74,6.4q-4.83,4.91-12.69,4.91a21.662,21.662,0,0,1-7.07-1.11,14.486,14.486,0,0,1-6-3.74,15.316,15.316,0,0,1-3.83-6.46,20.977,20.977,0,0,1-.6-3.51c-.08-1-.12-2.37-.12-4V36.92h11.58V64.33a22.806,22.806,0,0,0,.18,3.09,9.21,9.21,0,0,0,.81,2.78,5,5,0,0,0,4.93,2.8c2.43,0,4.07-.9,4.91-2.72a9.552,9.552,0,0,0,.71-2.75q.12-1.2.12-3.18V36.92H395Z" fill="#42b485"/><path d="M430.75,56V82.29H420.58V56h-5V48.26h5V36.92h10.17V48.26h4.91V56Z" fill="#42b485"/><path d="M458.17,57.33a12.062,12.062,0,0,0-5.69,1.2c-1.55,1-2.33,2.64-2.33,5.06v18.7H440v-34h9.55v3.62h.15q2.43-4.79,8.5-4.79Z" fill="#42b485"/><path d="M486.66,82.29V78.61h-.12a8.328,8.328,0,0,1-4.28,3.74,14.134,14.134,0,0,1-5.66,1.11,16,16,0,0,1-12.48-5.3,18.633,18.633,0,0,1-4.61-12.9,18.362,18.362,0,0,1,4.7-12.81,16,16,0,0,1,12.39-5.36,13.744,13.744,0,0,1,5.63,1.14,9.181,9.181,0,0,1,4.31,3.65h.12V48.26h10.17v34Zm-2.43-23.22a8.239,8.239,0,0,0-6.13-2.46,7.929,7.929,0,0,0-6.1,2.58,8.66,8.66,0,0,0-2.33,6.19,8.32,8.32,0,0,0,2.42,6.05,8.666,8.666,0,0,0,12.14-12.36Z" fill="#42b485"/><path d="M401.78,82.29V36.85H412V82.29Z" fill="#42b485"/></g><g transform="translate(5457 18334.365)"><path d="M55.63,121.27,12.13,96.21c3.4-1.18,3.94-3.52,3.93-6.44q-.12-28.729,0-57.44c0-2.77-.4-5.13-4.06-6.2L31.54,14.84V89.07c0,3.49.9,5.32,4,7.07,2.59,1.45,2.96,1.58,4.9,2.7V12.99c0-2.31.52-3.73,2.65-4.83C47.22,5.99,51.19,3.54,55.63,1Z" fill="#3c9"/><path d="M65.23,121.27l43.46-25.06c-3.4-1.18-3.93-3.52-3.92-6.44q.12-28.729,0-57.44c0-2.77.41-5.13,4.06-6.2L89.32,14.84V89.07c0,3.49-.89,5.32-4,7.07-2.54,1.41-2.92,1.54-4.85,2.63V95.13c0-27.36-.06-54.33,0-82.21,0-2.31-.53-3.73-2.66-4.83C73.63,5.99,69.66,3.54,65.23,1Z" fill="url(#a)"/><path d="M72.81,9.48l1.71,3.45,3.81.56-2.76,2.69.65,3.79-3.41-1.79L69.4,19.97l.65-3.79-2.76-2.69,3.84-.56Z" fill="#fff"/><rect width="121" height="121" transform="translate(0 0)" fill="none"/></g></g></svg>